Genre:Fantasy | Romance | Thriller
Language:English
IMDb: http://www.imdb.com/title/tt1325004/
Video Source:Prism:Thanks.
...........................................
General
Complete name : The.Twilight.Saga.Eclipse.2010.DvDscr.H264.FEEL-FREE
Format : MPEG-4
Format profile : Base Media
Codec ID : isom
File size : 1.19 GiB
Duration : 2h 3mn
Overall bit rate : 1 370 Kbps
.............................................
Video
ID : 1
Format : MPEG-4 Visual
Format profile : Simple@L1
Format settings, BVOP : No
Format settings, QPel : No
Format settings, GMC : No warppoints
Format settings, Matrix : Default (H.263)
Codec ID : 20
Duration : 2h 3mn
Bit rate mode : Variable
Bit rate : 1 199 Kbps
Width : 652 pixels
Height : 352 pixels
Display aspect ratio : 1.852
Frame rate mode : Constant
Frame rate : 29.970 fps
Resolution : 24 bits
Colorimetry : 4:2:0
Scan type : Progressive
Bits/(Pixel*Frame) : 0.174
Stream size : 1.04 GiB (88%)
.................................................

Audio
ID : 2
Format : AAC
Format/Info : Advanced Audio Codec
Format version : Version 4
Format profile : LC
Format settings, SBR : No
Codec ID : 40
Duration : 2h 3mn
Bit rate mode : Variable
Bit rate : 165 Kbps
Channel(s) : 2 channels
Channel positions : L R
Sampling rate : 48.0 KHz
Resolution : 16 bits
Stream size : 146 MiB (12%)
..................................................
Plot:
As a string of mysterious killings grips Seattle, Bella, whose high school graduation is fast approaching, is forced to choose between her love for vampire Edward and her friendship with werewolf Jacob.
...................................................
 
http://www.starshare.ro/bitbucket/The.Twilight.Saga.Eclipse.2010.DvDscr.H264.FEEL-FREE.mp4_thumbs_%5B2010.08.19_13.07.56%5D.jpg
 
http://www.starshare.ro/bitbucket/The.Twilight.Saga.Eclipse.2010.DvDscr.H264.FEEL-FREE.mp4_snapshot_00.23.51_%5B2010.08.19_13.08.05%5D.jpg
 
http://www.starshare.ro/bitbucket/The.Twilight.Saga.Eclipse.2010.DvDscr.H264.FEEL-FREE.mp4_snapshot_00.36.29_%5B2010.08.19_13.08.08%5D.jpg
 
http://www.starshare.ro/bitbucket/The.Twilight.Saga.Eclipse.2010.DvDscr.H264.FEEL-FREE.mp4_snapshot_00.44.44_%5B2010.08.19_13.08.03%5D.jpg
 
http://www.starshare.ro/bitbucket/The.Twilight.Saga.Eclipse.2010.DvDscr.H264.FEEL-FREE.mp4_snapshot_01.32.01_%5B2010.08.19_13.08.14%5D.jpg